<svg width="180" height="180" viewBox="0 0 180 180" xmlns="http://www.w3.org/2000/svg" xmlns:xlink="http://www.w3.org/1999/xlink"><title>Sparanoid</title><defs><path d="M90 165c41.42 0 75-33.58 75-75s-33.58-75-75-75-75 33.58-75 75 33.58 75 75 75zm0-10c35.9 0 65-29.1 65-65s-29.1-65-65-65-65 29.1-65 65 29.1 65 65 65zm0-4.167c33.597 0 60.833-27.236 60.833-60.833 0-33.597-27.236-60.833-60.833-60.833-33.597 0-60.833 27.236-60.833 60.833 0 33.597 27.236 60.833 60.833 60.833zm0-18.333c23.472 0 42.5-19.028 42.5-42.5S113.472 47.5 90 47.5 47.5 66.528 47.5 90s19.028 42.5 42.5 42.5z" id="a"/></defs><g fill="none" fill-rule="evenodd"><circle fill="#FFF" cx="90" cy="90" r="90"/><mask id="b" fill="#fff"><use xlink:href="#a"/></mask><use fill="#A212D1" xlink:href="#a"/><path d="M0 0h180v180H0z" mask="url(#b)" fill="#A212D1"/></g></svg>
